<svg width="44" height="44" viewBox="0 0 44 44" fill="none" xmlns="http://www.w3.org/2000/svg">
<rect x="1" y="1" width="41.5889" height="42" rx="20.7945" fill="#F55B5B" stroke="#15161A"/>
<g clip-path="url(#clip0_114_96)">
<path d="M21.2313 15.1858C22.4189 15.1847 23.5801 15.5394 24.5681 16.2049C25.5561 16.8704 26.3264 17.8169 26.7816 18.9246C27.2368 20.0323 27.3565 21.2515 27.1255 22.4279C26.8945 23.6043 26.3231 24.6851 25.4838 25.5336C24.6444 26.382 23.5747 26.96 22.41 27.1944C21.2453 27.4287 20.038 27.309 18.9407 26.8503C17.8434 26.3916 16.9054 25.6145 16.2455 24.6174C15.5856 23.6203 15.2334 22.4479 15.2334 21.2486C15.2406 19.6438 15.8747 18.1068 16.9978 16.9716C18.1209 15.8363 19.6423 15.1946 21.2313 15.1858M21.2313 14.0508C19.8217 14.0508 18.4437 14.473 17.2716 15.2638C16.0995 16.0547 15.186 17.1789 14.6465 18.4941C14.1071 19.8093 13.9659 21.2565 14.241 22.6528C14.516 24.049 15.1948 25.3315 16.1915 26.3381C17.1883 27.3447 18.4583 28.0303 19.8408 28.308C21.2234 28.5857 22.6565 28.4432 23.9588 27.8984C25.2611 27.3536 26.3743 26.4311 27.1574 25.2474C27.9406 24.0637 28.3586 22.6721 28.3586 21.2486C28.3586 19.3396 27.6077 17.5088 26.2711 16.159C24.9344 14.8091 23.1216 14.0508 21.2313 14.0508Z" fill="white"/>
<path d="M31.4672 30.8216L27.4266 26.7133L26.6481 27.494L30.6887 31.6022C30.7395 31.6539 30.7998 31.6949 30.8662 31.723C30.9327 31.751 31.004 31.7656 31.076 31.7659C31.1481 31.7661 31.2194 31.7521 31.2861 31.7245C31.3527 31.6969 31.4134 31.6563 31.4645 31.605C31.5156 31.5538 31.5562 31.4928 31.584 31.4257C31.6118 31.3586 31.6263 31.2866 31.6265 31.2139C31.6268 31.1411 31.6128 31.069 31.5855 31.0017C31.5582 30.9344 31.518 30.8732 31.4672 30.8216Z" fill="white"/>
</g>
<defs>
<clipPath id="clip0_114_96">
<rect x="12.2783" y="12.3898" width="19.7371" height="19.9322" rx="9.86856" fill="white"/>
</clipPath>
</defs>
</svg>
