<svg width="38" height="36" viewBox="0 0 38 36" fill="none" xmlns="http://www.w3.org/2000/svg">
<g clip-path="url(#clip0_108_2)">
<path d="M14.5907 32C15.8739 32 16.9141 30.9926 16.9141 29.75C16.9141 28.5074 15.8739 27.5 14.5907 27.5C13.3075 27.5 12.2673 28.5074 12.2673 29.75C12.2673 30.9926 13.3075 32 14.5907 32Z" fill="white"/>
<path d="M28.7065 32C29.9896 32 31.0299 30.9926 31.0299 29.75C31.0299 28.5074 29.9896 27.5 28.7065 27.5C27.4233 27.5 26.3831 28.5074 26.3831 29.75C26.3831 30.9926 27.4233 32 28.7065 32Z" fill="white"/>
<path d="M34.9847 5.36999C34.8887 5.25527 34.7675 5.1626 34.63 5.09862C34.4926 5.03465 34.3422 5.00096 34.1896 4.99999H12.6907L13.3619 6.99999H32.8369L30.0799 19H14.5907L9.8717 4.52999C9.82066 4.37645 9.73202 4.23714 9.61334 4.12396C9.49467 4.01077 9.34949 3.92707 9.19018 3.87999L4.95648 2.61999C4.8263 2.58125 4.68952 2.56772 4.55394 2.58017C4.41836 2.59262 4.28664 2.63082 4.1663 2.69257C3.92327 2.81728 3.74135 3.03038 3.66056 3.28499C3.57977 3.53959 3.60673 3.81486 3.7355 4.05021C3.86428 4.28557 4.08433 4.46175 4.34724 4.53999L8.05431 5.63999L12.794 20.14L11.1005 21.48L10.9663 21.61C10.5474 22.0775 10.3099 22.6718 10.2949 23.2906C10.2798 23.9094 10.488 24.5139 10.8837 25C11.1651 25.3314 11.5227 25.5945 11.928 25.7682C12.3332 25.9418 12.7748 26.0212 13.2174 26H30.4516C30.7255 26 30.9881 25.8946 31.1818 25.7071C31.3754 25.5196 31.4842 25.2652 31.4842 25C31.4842 24.7348 31.3754 24.4804 31.1818 24.2929C30.9881 24.1053 30.7255 24 30.4516 24H13.0521C12.9332 23.9961 12.8174 23.9625 12.7158 23.9025C12.6142 23.8426 12.5302 23.7583 12.4721 23.6577C12.414 23.5572 12.3836 23.4439 12.3839 23.3286C12.3842 23.2134 12.4152 23.1002 12.4739 23L14.9625 21H30.9059C31.1446 21.0056 31.378 20.931 31.5663 20.7888C31.7545 20.6466 31.8861 20.4456 31.9385 20.22L35.2119 6.21999C35.2433 6.0709 35.2392 5.91685 35.1998 5.76955C35.1604 5.62225 35.0869 5.4856 34.9847 5.36999V5.36999Z" fill="white"/>
</g>
<defs>
<clipPath id="clip0_108_2">
<rect width="37.1739" height="36" fill="white" transform="translate(0.82605)"/>
</clipPath>
</defs>
</svg>
