<svg width="26" height="20" viewBox="0 0 26 20" fill="none" xmlns="http://www.w3.org/2000/svg">
<path d="M13.3874 0.487975C20.0204 0.487975 25.3818 4.73614 25.3818 9.9958C25.3818 14.9802 20.547 19.0735 14.4094 19.4681C14.0699 19.5168 13.7258 19.5168 13.3877 19.5168C12.4891 19.5168 11.6178 19.4457 10.7837 19.2949C5.39016 18.3416 1.35908 14.5321 1.35908 9.99556C1.35848 4.73614 6.75507 0.487975 13.3874 0.487975ZM13.3874 0C6.4143 0 0.73999 4.48783 0.73999 9.99556C0.73999 14.634 4.9075 18.7493 10.6467 19.774C11.5138 19.9248 12.4348 20 13.3874 20C13.7609 20 14.1433 20 14.5156 19.9534C20.9272 19.5432 26 15.1707 26 9.99556C25.9997 4.48783 20.3399 0 13.3874 0Z" fill="white"/>
<path d="M14.7499 8.24045C14.9346 8.0673 15.3078 7.94339 15.8359 7.94339C16.3295 7.94339 16.9195 8.00102 17.4779 8.12518L17.9439 6.12957C16.9844 5.86349 15.9927 5.78809 14.9688 5.78809C13.9441 5.78809 13.1367 5.91224 12.4885 6.2093C11.8364 6.49315 11.4016 6.81687 11.1554 7.28683C10.9071 7.70829 10.7831 8.41311 10.7831 9.30021V10.0852H8.79639V12.3645H10.7831V19.5352C11.6172 19.686 12.4885 19.7571 13.3871 19.7571C13.7252 19.7571 14.0693 19.7571 14.4089 19.7083V12.3645H17.0426V10.0852H14.4089V9.3492C14.4092 8.78582 14.5028 8.44001 14.7499 8.24045Z" fill="white"/>
</svg>
