<svg width="38" height="36" viewBox="0 0 38 36" fill="none" xmlns="http://www.w3.org/2000/svg">
<g clip-path="url(#clip0_108_12)">
<path d="M16.8625 5.05C19.0993 5.04802 21.2864 5.68855 23.1472 6.89054C25.008 8.09254 26.4588 9.80201 27.3162 11.8027C28.1736 13.8034 28.399 16.0054 27.9639 18.1301C27.5288 20.2549 26.4527 22.2069 24.8718 23.7393C23.2909 25.2717 21.2761 26.3155 19.0825 26.7389C16.8889 27.1622 14.6149 26.9459 12.5482 26.1174C10.4815 25.2889 8.71494 23.8855 7.47205 22.0845C6.22916 20.2836 5.56575 18.1661 5.56575 16C5.57931 13.1017 6.77352 10.3256 8.88885 8.27522C11.0042 6.22482 13.8696 5.06578 16.8625 5.05M16.8625 3C14.2075 3 11.6121 3.76244 9.40456 5.1909C7.19701 6.61935 5.47643 8.64968 4.46041 11.0251C3.44438 13.4006 3.17855 16.0144 3.69651 18.5362C4.21448 21.0579 5.49298 23.3743 7.37035 25.1924C9.24771 27.0105 11.6396 28.2486 14.2436 28.7502C16.8476 29.2518 19.5467 28.9944 21.9996 28.0104C24.4525 27.0265 26.549 25.3603 28.0241 23.2224C29.4991 21.0846 30.2864 18.5712 30.2864 16C30.2864 12.5522 28.8721 9.24558 26.3546 6.80761C23.8372 4.36964 20.4227 3 16.8625 3Z" fill="white"/>
<path d="M36.1413 33.29L28.531 25.87L27.0647 27.28L34.675 34.7C34.7706 34.7932 34.8843 34.8673 35.0094 34.918C35.1346 34.9687 35.2688 34.9951 35.4045 34.9956C35.5402 34.996 35.6746 34.9706 35.8002 34.9207C35.9257 34.8709 36.0399 34.7976 36.1362 34.705C36.2324 34.6124 36.3089 34.5024 36.3613 34.3812C36.4137 34.2599 36.4409 34.1299 36.4414 33.9985C36.4418 33.8671 36.4156 33.7369 36.3641 33.6154C36.3126 33.4938 36.2369 33.3832 36.1413 33.29Z" fill="white"/>
</g>
<defs>
<clipPath id="clip0_108_12">
<rect width="37.1739" height="36" fill="white"/>
</clipPath>
</defs>
</svg>
