<svg width="45" height="44" viewBox="0 0 45 44" fill="none" xmlns="http://www.w3.org/2000/svg">
<rect x="1" y="1" width="42.9057" height="42" rx="21" stroke="#15161A"/>
<line x1="11.6902" y1="14.4126" x2="33.2157" y2="14.4126" stroke="#15161A" stroke-linecap="round"/>
<line x1="11.6902" y1="22.2876" x2="33.2157" y2="22.2876" stroke="#15161A" stroke-linecap="round"/>
<line x1="11.6902" y1="30.1626" x2="33.2157" y2="30.1626" stroke="#15161A" stroke-linecap="round"/>
<path d="M30.8916 22.4375C30.8916 23.3594 30.125 24.125 29.1569 24.125C28.1888 24.125 27.4222 23.3594 27.4222 22.4375C27.4222 21.5155 28.1888 20.75 29.1569 20.75C30.125 20.75 30.8916 21.5155 30.8916 22.4375Z" fill="black" stroke="#15161A"/>
<path d="M18.3774 14.5624C18.3774 15.4844 17.6108 16.2499 16.6427 16.2499C15.6746 16.2499 14.908 15.4844 14.908 14.5624C14.908 13.6405 15.6746 12.8749 16.6427 12.8749C17.6108 12.8749 18.3774 13.6405 18.3774 14.5624Z" fill="black" stroke="#15161A"/>
<path d="M18.3774 30.3125C18.3774 31.2344 17.6108 32 16.6427 32C15.6746 32 14.908 31.2344 14.908 30.3125C14.908 29.3905 15.6746 28.625 16.6427 28.625C17.6108 28.625 18.3774 29.3905 18.3774 30.3125Z" fill="black" stroke="#15161A"/>
</svg>
