<svg width="38" height="36" viewBox="0 0 38 36" fill="none" xmlns="http://www.w3.org/2000/svg">
<g clip-path="url(#clip0_108_7)">
<path d="M19.2174 17C20.647 17 22.0445 16.5895 23.2332 15.8203C24.4219 15.0511 25.3484 13.9579 25.8954 12.6788C26.4425 11.3997 26.5857 9.99224 26.3068 8.63437C26.0279 7.2765 25.3394 6.02922 24.3285 5.05026C23.3177 4.07129 22.0297 3.4046 20.6276 3.13451C19.2254 2.86441 17.7721 3.00303 16.4513 3.53285C15.1305 4.06266 14.0016 4.95987 13.2073 6.11101C12.4131 7.26216 11.9891 8.61553 11.9891 10C11.9891 11.8565 12.7507 13.637 14.1062 14.9497C15.4618 16.2625 17.3003 17 19.2174 17ZM19.2174 5C20.2386 5 21.2368 5.29325 22.0858 5.84265C22.9349 6.39206 23.5966 7.17296 23.9874 8.08659C24.3782 9.00022 24.4805 10.0055 24.2812 10.9755C24.082 11.9454 23.5903 12.8363 22.8682 13.5355C22.1462 14.2348 21.2262 14.711 20.2247 14.9039C19.2231 15.0969 18.185 14.9978 17.2416 14.6194C16.2982 14.241 15.4918 13.6001 14.9245 12.7779C14.3572 11.9556 14.0544 10.9889 14.0544 10C14.0544 8.67392 14.5983 7.40215 15.5666 6.46447C16.5348 5.52679 17.8481 5 19.2174 5V5Z" fill="white"/>
<path d="M32.094 24.37C30.438 22.675 28.4425 21.3249 26.2293 20.4022C24.0162 19.4795 21.632 19.0036 19.2225 19.0036C16.813 19.0036 14.4288 19.4795 12.2157 20.4022C10.0026 21.3249 8.00706 22.675 6.35107 24.37C5.99204 24.7414 5.79264 25.2313 5.79346 25.74V31C5.79346 31.5304 6.01104 32.0391 6.39835 32.4142C6.78565 32.7893 7.31095 33 7.85868 33H30.5761C31.1238 33 31.6491 32.7893 32.0364 32.4142C32.4237 32.0391 32.6413 31.5304 32.6413 31V25.74C32.6449 25.2326 32.4493 24.7429 32.094 24.37V24.37ZM30.5761 31H7.85868V25.73C9.32212 24.2377 11.0838 23.0493 13.0365 22.2373C14.9893 21.4252 17.0922 21.0065 19.2174 21.0065C21.3425 21.0065 23.4455 21.4252 25.3982 22.2373C27.3509 23.0493 29.1126 24.2377 30.5761 25.73V31Z" fill="white"/>
</g>
<defs>
<clipPath id="clip0_108_7">
<rect width="37.1739" height="36" fill="white" transform="translate(0.630432)"/>
</clipPath>
</defs>
</svg>
